<?xml version="1.0" standalone="no"?>
<!DOCTYPE svg PUBLIC "-//W3C//DTD SVG 20010904//EN"
 "http://www.w3.org/TR/2001/REC-SVG-20010904/DTD/svg10.dtd">
<svg version="1.0" xmlns="http://www.w3.org/2000/svg"
 width="300.000000pt" height="202.000000pt" viewBox="0 0 300.000000 202.000000"
 preserveAspectRatio="xMidYMid meet">
<metadata>
Created by potrace 1.10, written by Peter Selinger 2001-2011
</metadata>
<g transform="translate(0.000000,202.000000) scale(0.100000,-0.100000)"
fill="#000000" stroke="none">
<path d="M1262 1503 c-8 -3 -27 -26 -43 -51 -31 -48 -49 -40 -29 13 13 34 9
39 -28 30 -45 -10 -74 -41 -70 -78 3 -30 5 -32 39 -29 21 2 40 -1 43 -7 4 -5
21 -7 40 -4 27 4 36 1 49 -17 15 -21 17 -21 113 -10 56 7 132 9 174 5 l74 -6
-27 25 c-32 30 -34 59 -7 86 26 26 25 30 -8 30 -32 0 -55 -21 -71 -63 -6 -15
-15 -27 -21 -27 -14 0 -13 14 5 57 21 50 20 53 -28 53 -51 0 -81 -19 -106 -68
-15 -29 -21 -33 -26 -21 -3 9 1 33 9 53 l15 36 -42 -1 c-23 0 -48 -3 -55 -6z
m54 -57 c0 -20 5 -41 11 -47 15 -15 47 7 60 42 11 29 55 54 79 45 10 -4 11
-12 2 -37 -8 -24 -8 -37 1 -50 10 -17 8 -19 -26 -20 -21 0 -47 -2 -58 -3 -71
-10 -93 -9 -115 7 -13 9 -30 17 -37 17 -17 0 -16 6 4 40 16 28 49 51 68 46 5
-1 10 -19 11 -40z m-153 4 c-9 -33 -53 -48 -53 -19 0 6 42 35 57 39 0 0 -1 -9
-4 -20z m393 -30 c-1 -35 -4 -40 -23 -40 -13 0 -23 5 -23 10 0 6 4 10 9 10 5
0 14 14 21 30 7 17 14 30 15 30 1 0 2 -18 1 -40z"/>
<path d="M1652 1498 c-7 -7 -12 -18 -12 -24 0 -7 -9 -16 -20 -19 -30 -10 -28
-63 4 -71 36 -9 48 -62 30 -131 -11 -42 -12 -59 -3 -69 10 -12 16 -10 36 12
20 22 29 25 63 19 32 -5 40 -4 40 8 0 9 -8 17 -19 19 -18 3 -18 4 0 38 18 33
20 34 25 13 5 -18 14 -23 38 -23 17 0 42 -7 54 -16 19 -13 23 -13 28 0 3 8 1
23 -5 34 -7 14 -7 29 2 51 8 23 9 36 1 49 -6 9 -9 32 -6 50 6 47 -13 65 -61
59 -22 -3 -50 -1 -63 5 -18 8 -29 7 -47 -4 -20 -14 -26 -14 -42 -2 -23 17 -28
17 -43 2z m143 -27 c11 -5 29 -5 41 -1 34 13 49 -4 51 -62 3 -73 -11 -107 -46
-106 -20 1 -34 11 -50 35 -14 23 -28 33 -37 29 -9 -3 -25 5 -39 20 -19 20 -30
25 -50 20 -33 -8 -44 17 -19 45 15 17 26 20 56 15 20 -3 40 -2 43 4 7 12 22
12 50 1z m-92 -106 c13 -19 15 -30 8 -43 -9 -15 -11 -13 -21 16 -7 17 -16 32
-21 32 -5 0 -9 5 -9 10 0 18 25 10 43 -15z m71 -34 c3 -4 -6 -19 -19 -31 -26
-24 -29 -21 -19 18 6 22 28 30 38 13z m-53 -70 c6 -14 5 -20 -1 -16 -6 3 -10
2 -10 -3 0 -5 -9 -12 -20 -15 -17 -4 -18 -3 -8 16 6 12 11 23 10 25 -1 1 -2 7
-2 13 0 18 23 4 31 -20z"/>
<path d="M1116 1354 c-20 -20 -20 -44 0 -72 20 -29 59 -26 59 3 0 15 8 21 34
25 37 5 46 17 32 39 -8 12 -14 13 -37 2 -24 -11 -30 -10 -40 3 -14 20 -28 20
-48 0z m36 -54 c-9 -24 -9 -24 -20 -4 -8 16 -8 24 0 32 18 18 30 -1 20 -28z"/>
<path d="M1411 1323 c-8 -14 -12 -15 -19 -5 -14 21 -92 -4 -92 -28 0 -11 23
-18 97 -30 58 -10 67 -9 79 7 13 17 13 17 14 -2 0 -16 11 -24 45 -33 63 -17
72 -15 91 13 20 30 11 62 -22 77 -20 10 -27 8 -39 -8 -14 -18 -14 -18 -15 4 0
20 -4 22 -65 22 -50 0 -66 -4 -74 -17z m123 -22 c9 -8 26 -11 41 -7 31 8 45
-18 23 -41 -16 -15 -19 -14 -78 17 -15 8 -50 13 -85 12 -33 -1 -67 2 -75 7
-11 7 -7 10 15 10 17 0 44 4 60 9 39 11 80 8 99 -7z"/>
<path d="M1228 1292 c-19 -2 -28 -9 -28 -21 0 -21 -22 -42 -74 -70 l-39 -20
27 -11 c38 -14 69 -13 116 6 81 33 211 3 283 -65 92 -84 99 -246 17 -359 -16
-23 -30 -47 -30 -52 0 -38 101 1 163 63 49 49 48 82 0 82 -40 0 -43 10 -7 19
15 4 32 2 40 -5 20 -16 24 -10 31 52 5 46 4 52 -8 42 -10 -8 -20 -9 -29 -3 -8
5 -24 7 -35 4 -16 -5 -18 -4 -7 7 6 7 28 12 47 11 31 -2 35 0 34 20 -1 36 -14
64 -23 49 -4 -6 -16 -9 -27 -6 -11 4 -26 1 -34 -5 -10 -8 -15 -9 -15 -2 0 13
35 34 43 26 3 -3 13 -2 21 3 14 8 13 13 -8 42 -13 18 -27 28 -30 23 -9 -14
-58 -22 -53 -8 2 6 13 12 25 14 12 2 22 6 22 10 -1 14 -52 44 -59 35 -9 -14
-41 -24 -41 -13 0 5 7 13 16 18 10 5 12 12 7 15 -29 18 -137 37 -209 37 l-82
0 -7 30 c-8 35 -11 37 -47 32z m31 -69 c1 -14 -61 -43 -92 -43 -17 0 -16 3 9
22 16 13 31 26 32 30 2 5 11 16 20 24 15 15 16 15 23 -2 4 -11 8 -25 8 -31z
m171 -22 c0 -5 -9 -7 -20 -4 -11 3 -20 7 -20 9 0 2 9 4 20 4 11 0 20 -4 20 -9z
m85 -10 c11 -5 21 -13 21 -20 1 -6 2 -18 3 -26 1 -11 9 -13 34 -8 25 4 30 3
20 -7 -20 -22 4 -47 41 -42 l31 4 -23 -22 c-33 -31 -25 -54 21 -58 20 -2 37
-8 37 -14 0 -5 -7 -8 -15 -5 -22 9 -58 -25 -49 -46 4 -11 13 -16 21 -13 8 3
23 2 33 -4 23 -12 16 -49 -8 -44 -22 5 -67 -30 -58 -45 4 -6 16 -11 27 -11 10
0 19 -6 19 -14 0 -19 -17 -29 -25 -16 -3 5 -15 10 -25 10 -22 0 -37 19 -23 29
5 3 10 28 12 56 2 27 5 53 7 57 2 4 -7 36 -21 71 -28 69 -78 127 -126 147 -16
7 -29 16 -29 21 0 11 47 11 75 0z m115 -406 c0 -8 -4 -15 -9 -15 -13 0 -22 16
-14 24 11 11 23 6 23 -9z m-30 -20 c7 -9 11 -17 9 -19 -20 -15 -55 -36 -61
-36 -13 0 -9 19 8 45 19 29 27 31 44 10z"/>
<path d="M1091 1246 c-12 -14 -5 -26 16 -26 15 0 18 26 4 34 -5 3 -14 0 -20
-8z"/>
<path d="M1815 1238 c-2 -7 -5 -22 -7 -33 -3 -18 -10 -20 -55 -17 -45 3 -52 1
-58 -18 -4 -12 -1 -27 5 -35 14 -17 63 -20 91 -5 16 9 19 7 19 -9 0 -27 34
-45 59 -31 27 14 44 70 32 102 -19 49 -75 79 -86 46z m53 -30 c17 -17 15 -73
-4 -89 -14 -12 -19 -10 -38 13 -16 19 -26 24 -41 18 -34 -14 -65 -11 -65 5 0
13 7 15 35 9 37 -7 85 20 77 44 -5 15 20 16 36 0z"/>
<path d="M1215 1148 c-51 -18 -95 -57 -95 -84 0 -16 -6 -24 -17 -24 -14 0 -14
-2 2 -20 22 -25 37 -26 34 -2 -1 9 -1 28 0 42 4 55 142 105 224 81 42 -13 153
-88 143 -98 -3 -3 1 -12 9 -20 21 -20 35 -82 30 -125 -7 -51 -23 -90 -35 -83
-5 3 -7 0 -5 -8 9 -23 -74 -89 -109 -86 -5 0 -12 -5 -16 -11 -7 -12 -98 -17
-130 -8 -67 19 -122 63 -126 102 -2 20 1 22 24 18 15 -2 42 -16 61 -30 28 -21
46 -26 90 -25 82 1 90 3 122 36 41 41 51 64 51 116 0 123 -133 199 -247 141
-22 -11 -50 -20 -63 -20 -13 0 -20 -4 -17 -10 10 -16 48 -11 80 10 40 27 119
27 162 0 125 -76 71 -260 -77 -260 -36 0 -58 7 -91 30 -24 16 -54 30 -65 30
-12 0 -25 7 -28 16 -6 15 -8 15 -27 -2 -18 -16 -19 -19 -4 -30 8 -6 13 -18 10
-26 -9 -23 31 -65 90 -93 48 -24 64 -27 128 -23 61 3 83 9 123 33 130 81 153
262 46 370 -53 54 -104 75 -182 74 -36 0 -78 -5 -95 -11z"/>
<path d="M1105 1139 c-10 -15 1 -23 20 -15 9 3 13 10 10 16 -8 13 -22 13 -30
-1z"/>
<path d="M1080 1090 c0 -5 5 -10 10 -10 6 0 10 5 10 10 0 6 -4 10 -10 10 -5 0
-10 -4 -10 -10z"/>
<path d="M1736 1092 c-3 -6 -1 -14 5 -17 15 -10 25 3 12 16 -7 7 -13 7 -17 1z"/>
<path d="M1780 1069 c-7 -12 -16 -61 -20 -109 -5 -66 -13 -101 -33 -139 -15
-28 -27 -60 -27 -70 0 -11 -10 -29 -22 -41 -25 -23 -19 -36 10 -21 12 6 33 11
47 11 66 0 154 161 163 298 l5 73 -37 -6 c-28 -6 -41 -3 -56 10 -17 16 -19 15
-30 -6z m44 -28 c3 -5 15 -7 26 -4 11 3 20 1 21 -3 0 -5 2 -17 4 -27 2 -10 -1
-33 -6 -50 -5 -18 -14 -48 -20 -67 -15 -51 -49 -122 -67 -142 -8 -10 -26 -18
-39 -18 -28 0 -26 13 9 88 11 23 24 73 29 111 14 112 25 141 43 112z"/>
<path d="M1215 1004 c-68 -35 -84 -75 -20 -48 19 8 43 14 54 14 27 0 53 -38
41 -60 -15 -29 -39 -31 -87 -10 -26 11 -48 18 -51 15 -11 -11 53 -65 94 -81
106 -40 211 48 164 137 -25 46 -134 65 -195 33z m149 -19 c11 -8 21 -24 23
-36 3 -19 2 -19 -13 -5 -17 18 -35 20 -49 7 -6 -6 -20 2 -36 20 l-27 29 42 0
c22 0 50 -7 60 -15z m2 -56 c10 -17 -13 -36 -27 -22 -12 12 -4 33 11 33 5 0
12 -5 16 -11z m3 -39 c25 13 27 3 4 -22 -19 -21 -107 -26 -119 -6 -5 7 -3 8 6
3 8 -5 17 -2 24 7 15 20 38 27 53 16 7 -6 19 -5 32 2z"/>
<path d="M1085 960 c-8 -14 3 -30 21 -30 8 0 14 9 14 20 0 21 -24 28 -35 10z"/>
<path d="M1110 900 c0 -5 5 -10 10 -10 6 0 10 5 10 10 0 6 -4 10 -10 10 -5 0
-10 -4 -10 -10z"/>
<path d="M1889 858 c-16 -61 -42 -108 -78 -142 -17 -17 -31 -33 -31 -38 0 -9
101 -11 124 -2 13 5 16 25 16 115 0 115 -11 139 -31 67z m21 -48 c0 -5 -4 -10
-10 -10 -5 0 -10 5 -10 10 0 6 5 10 10 10 6 0 10 -4 10 -10z m-18 -45 c0 -5
-5 -11 -11 -13 -6 -2 -11 4 -11 13 0 9 5 15 11 13 6 -2 11 -8 11 -13z m2 -44
c3 -5 -1 -14 -8 -20 -16 -13 -32 2 -21 19 8 12 22 13 29 1z m-54 -21 c0 -5 -4
-10 -10 -10 -5 0 -10 5 -10 10 0 6 5 10 10 10 6 0 10 -4 10 -10z"/>
<path d="M1080 720 c0 -26 43 -54 70 -45 23 7 27 25 6 25 -7 0 -25 9 -39 20
-31 25 -37 25 -37 0z"/>
<path d="M1616 701 c-4 -5 -2 -12 3 -15 5 -4 12 -2 15 3 4 5 2 12 -3 15 -5 4
-12 2 -15 -3z"/>
<path d="M1098 619 c-24 -14 -27 -139 -3 -139 11 0 15 11 15 39 0 22 5 43 11
47 8 4 7 9 -2 16 -11 7 -11 11 -1 15 13 5 17 33 5 33 -5 0 -16 -5 -25 -11z"/>
<path d="M1439 623 c-1 -4 0 -16 1 -26 1 -14 -4 -16 -24 -11 -16 4 -32 1 -41
-6 -18 -15 -20 -71 -3 -88 15 -15 61 -15 76 0 14 14 16 124 2 133 -5 3 -11 3
-11 -2z m-5 -76 c8 -12 7 -21 -6 -33 -20 -20 -38 -11 -38 20 0 39 23 46 44 13z"/>
<path d="M1880 555 c0 -73 1 -75 25 -75 14 0 25 5 25 10 0 6 -4 10 -10 10 -14
0 -12 64 2 78 8 8 8 12 1 12 -6 0 -13 9 -16 20 -3 11 -10 20 -16 20 -7 0 -11
-27 -11 -75z"/>
<path d="M1152 578 c-17 -17 -15 -73 2 -87 8 -7 27 -11 42 -9 57 6 53 108 -4
108 -15 0 -33 -5 -40 -12z m53 -43 c0 -33 -28 -47 -39 -19 -10 25 3 56 22 52
11 -2 17 -13 17 -33z"/>
<path d="M1262 578 c-17 -17 -15 -73 2 -87 8 -7 27 -11 43 -9 59 7 55 108 -5
108 -15 0 -33 -5 -40 -12z m53 -43 c0 -20 -6 -31 -17 -33 -15 -3 -18 4 -18 33
0 29 3 36 18 33 11 -2 17 -13 17 -33z"/>
<path d="M1478 565 c-18 -40 0 -79 38 -83 19 -2 36 3 44 13 16 20 5 32 -15 15
-23 -19 -47 -5 -43 27 3 25 7 28 37 25 29 -2 32 0 21 13 -21 25 -69 19 -82
-10z"/>
<path d="M1588 565 c-17 -38 0 -79 35 -83 37 -5 57 14 57 52 0 39 -15 56 -52
56 -21 0 -32 -7 -40 -25z m67 -14 c8 -26 -5 -53 -24 -49 -29 6 -27 68 3 68 8
0 17 -8 21 -19z"/>
<path d="M1700 538 c5 -57 17 -66 66 -54 21 6 24 12 24 57 0 63 -23 63 -28 0
-3 -33 -7 -42 -20 -39 -13 3 -17 14 -16 46 1 32 -3 42 -15 42 -14 0 -16 -9
-11 -52z"/>
<path d="M1823 578 c-6 -7 -13 -32 -16 -55 -4 -33 -2 -43 9 -43 9 0 14 12 14
36 0 27 5 37 20 41 11 3 20 12 20 19 0 17 -34 18 -47 2z"/>
<path d="M1090 420 c6 -11 8 -25 5 -30 -3 -6 -2 -10 3 -10 6 0 15 15 21 33 10
29 9 30 -4 13 -13 -17 -15 -18 -15 -3 0 9 -5 17 -10 17 -7 0 -7 -7 0 -20z"/>
<path d="M1161 418 c-1 -22 4 -28 19 -28 15 0 20 7 20 25 0 14 -5 25 -11 25
-6 0 -9 -7 -6 -15 4 -8 2 -17 -3 -20 -5 -3 -11 5 -13 17 -4 20 -4 19 -6 -4z"/>
<path d="M1231 413 c2 -24 2 -25 6 -5 2 12 9 22 15 22 5 0 8 -7 5 -15 -4 -8
-2 -17 3 -20 6 -4 10 4 11 17 1 23 1 23 9 -2 l8 -25 1 28 c1 24 -3 27 -29 27
-26 0 -30 -3 -29 -27z"/>
<path d="M1327 433 c-11 -10 -8 -43 3 -43 6 0 10 10 11 23 1 21 1 21 9 -3 8
-24 8 -24 9 -2 1 12 5 22 10 22 5 0 12 -10 14 -22 4 -20 4 -19 6 5 1 23 -3 27
-27 27 -16 0 -32 -3 -35 -7z"/>
<path d="M1424 411 c1 -38 13 -40 26 -5 13 32 12 43 0 24 -8 -12 -12 -13 -19
-2 -5 9 -8 3 -7 -17z"/>
<path d="M1543 415 c0 -19 4 -25 16 -23 9 2 16 12 16 23 0 11 -7 21 -16 23
-12 2 -16 -4 -16 -23z"/>
<path d="M1610 420 c0 -10 9 -24 20 -30 18 -10 20 -8 20 20 0 23 -4 30 -20 30
-13 0 -20 -7 -20 -20z m30 -5 c0 -8 -4 -15 -10 -15 -5 0 -10 7 -10 15 0 8 5
15 10 15 6 0 10 -7 10 -15z"/>
<path d="M1682 418 c2 -13 11 -24 21 -26 13 -3 17 3 16 25 l-1 28 -8 -25 c-8
-24 -8 -24 -9 -2 -1 12 -6 22 -12 22 -6 0 -9 -10 -7 -22z"/>
<path d="M1757 421 c-6 -24 0 -31 25 -31 13 0 17 6 14 23 -4 28 -32 34 -39 8z"/>
<path d="M1830 415 c0 -14 2 -25 4 -25 2 0 6 11 8 25 3 14 1 25 -3 25 -5 0 -9
-11 -9 -25z"/>
<path d="M1884 425 c-7 -18 3 -35 22 -35 8 0 14 10 14 25 0 27 -27 35 -36 10z"/>
</g>
</svg>
